<?xml version="1.0" encoding="UTF-8" standalone="no"?>
<!DOCTYPE svg PUBLIC "-//W3C//DTD SVG 1.1//EN" "http://www.w3.org/Graphics/SVG/1.1/DTD/svg11.dtd">
<svg width="100%" height="100%" viewBox="0 0 350 350" version="1.1" xmlns="http://www.w3.org/2000/svg" xmlns:xlink="http://www.w3.org/1999/xlink" xml:space="preserve" xmlns:serif="http://www.serif.com/" style="fill-rule:evenodd;clip-rule:evenodd;stroke-linejoin:round;stroke-miterlimit:2;">
    <g transform="matrix(1,0,0,1,-533.755,-349.976)">
        <g id="_4" serif:id="4" transform="matrix(1,0,0,0.0997748,533.755,349.976)">
            <rect x="0" y="0" width="350" height="3507.9" style="fill:none;"/>
            <clipPath id="_clip1">
                <rect x="0" y="0" width="350" height="3507.9"/>
            </clipPath>
            <g clip-path="url(#_clip1)">
                <g transform="matrix(1,0,0,10.0226,-477.775,5.69884e-13)">
                    <rect x="477.775" y="0" width="350" height="350" style="fill:rgb(163,220,243);"/>
                    <path d="M827.775,0L477.775,0L477.775,350L827.775,350L827.775,0ZM825.275,2.5L825.275,347.5C825.275,347.5 480.275,347.5 480.275,347.5C480.275,347.5 480.275,2.5 480.275,2.5C511.527,2.5 825.275,2.5 825.275,2.5Z" style="fill:white;"/>
                </g>
                <g>
                    <g transform="matrix(1,0,0,1,0.0242547,-9.66338e-13)">
                        <g>
                            <g transform="matrix(-1,0,0,10.0226,1271.25,-4572.05)">
                                <path d="M1096.28,496.176C1080.53,496.176 1064.9,498.931 1050.1,504.317L1066.02,548.035C1075.71,544.505 1085.95,542.699 1096.28,542.699L1096.28,496.176Z"/>
                            </g>
                            <g transform="matrix(-0.766044,6.44238,0.642788,7.67774,609.059,-10154.7)">
                                <path d="M1096.28,496.176C1080.53,496.176 1064.9,498.931 1050.1,504.317L1066.02,548.035C1075.71,544.505 1085.95,542.699 1096.28,542.699L1096.28,496.176Z"/>
                            </g>
                            <g transform="matrix(-0.173648,9.87031,0.984808,1.7404,-256.245,-10165.1)">
                                <path d="M1096.28,496.176C1080.53,496.176 1064.9,498.931 1050.1,504.317L1066.02,548.035C1075.71,544.505 1085.95,542.699 1096.28,542.699L1096.28,496.176Z"/>
                            </g>
                            <g transform="matrix(0.5,8.6798,0.866025,-5.01129,-919.776,-4598.5)">
                                <path d="M1096.28,496.176C1080.53,496.176 1064.9,498.931 1050.1,504.317L1066.02,548.035C1075.71,544.505 1085.95,542.699 1096.28,542.699L1096.28,496.176Z"/>
                            </g>
                            <g transform="matrix(0.939693,3.42792,0.34202,-9.41814,-1071.06,3940.5)">
                                <path d="M1096.28,496.176C1080.53,496.176 1064.9,498.931 1050.1,504.317L1066.02,548.035C1075.71,544.505 1085.95,542.699 1096.28,542.699L1096.28,496.176Z"/>
                            </g>
                            <g transform="matrix(0.939693,-3.42792,-0.34202,-9.41814,-639.311,11456.4)">
                                <path d="M1096.28,496.176C1080.53,496.176 1064.9,498.931 1050.1,504.317L1066.02,548.035C1075.71,544.505 1085.95,542.699 1096.28,542.699L1096.28,496.176Z"/>
                            </g>
                            <g transform="matrix(0.5,-8.6798,-0.866025,-5.01129,173.452,14432.4)">
                                <path d="M1096.28,496.176C1080.53,496.176 1064.9,498.931 1050.1,504.317L1066.02,548.035C1075.71,544.505 1085.95,542.699 1096.28,542.699L1096.28,496.176Z"/>
                            </g>
                            <g transform="matrix(-0.173648,-9.87031,-0.984808,1.7404,986.929,11476)">
                                <path d="M1096.28,496.176C1080.53,496.176 1064.9,498.931 1050.1,504.317L1066.02,548.035C1075.71,544.505 1085.95,542.699 1096.28,542.699L1096.28,496.176Z"/>
                            </g>
                            <g transform="matrix(-0.766044,-6.44238,-0.642788,7.67774,1420.48,3970.58)">
                                <path d="M1096.28,496.176C1080.53,496.176 1064.9,498.931 1050.1,504.317L1066.02,548.035C1075.71,544.505 1085.95,542.699 1096.28,542.699L1096.28,496.176Z"/>
                            </g>
                        </g>
                        <g>
                            <g transform="matrix(-0.939693,3.42792,0.34202,9.41814,989.263,-7948.49)">
                                <path d="M1096.28,496.176C1080.53,496.176 1064.9,498.931 1050.1,504.317L1066.02,548.035C1075.71,544.505 1085.95,542.699 1096.28,542.699L1096.28,496.176Z" style="fill:rgb(229,47,47);"/>
                            </g>
                            <g transform="matrix(-0.5,8.6798,0.866025,5.01129,176.499,-10924.5)">
                                <path d="M1096.28,496.176C1080.53,496.176 1064.9,498.931 1050.1,504.317L1066.02,548.035C1075.71,544.505 1085.95,542.699 1096.28,542.699L1096.28,496.176Z" style="fill:rgb(229,47,47);"/>
                            </g>
                            <g transform="matrix(0.173648,9.87031,0.984808,-1.7404,-636.977,-7968.12)">
                                <path d="M1096.28,496.176C1080.53,496.176 1064.9,498.931 1050.1,504.317L1066.02,548.035C1075.71,544.505 1085.95,542.699 1096.28,542.699L1096.28,496.176Z" style="fill:rgb(229,47,47);"/>
                            </g>
                            <g transform="matrix(0.766044,6.44238,0.642788,-7.67774,-1070.53,-462.677)">
                                <path d="M1096.28,496.176C1080.53,496.176 1064.9,498.931 1050.1,504.317L1066.02,548.035C1075.71,544.505 1085.95,542.699 1096.28,542.699L1096.28,496.176Z" style="fill:rgb(229,47,47);"/>
                            </g>
                            <g transform="matrix(1,3.55271e-15,3.88578e-16,-10.0226,-921.299,8079.95)">
                                <path d="M1096.28,496.176C1080.53,496.176 1064.9,498.931 1050.1,504.317L1066.02,548.035C1075.71,544.505 1085.95,542.699 1096.28,542.699L1096.28,496.176Z" style="fill:rgb(229,47,47);"/>
                            </g>
                            <g transform="matrix(0.766044,-6.44238,-0.642788,-7.67774,-259.108,13662.6)">
                                <path d="M1096.28,496.176C1080.53,496.176 1064.9,498.931 1050.1,504.317L1066.02,548.035C1075.71,544.505 1085.95,542.699 1096.28,542.699L1096.28,496.176Z" style="fill:rgb(229,47,47);"/>
                            </g>
                            <g transform="matrix(0.173648,-9.87031,-0.984808,-1.7404,606.196,13673)">
                                <path d="M1096.28,496.176C1080.53,496.176 1064.9,498.931 1050.1,504.317L1066.02,548.035C1075.71,544.505 1085.95,542.699 1096.28,542.699L1096.28,496.176Z" style="fill:rgb(229,47,47);"/>
                            </g>
                            <g transform="matrix(-0.5,-8.6798,-0.866025,5.01129,1269.73,8106.4)">
                                <path d="M1096.28,496.176C1080.53,496.176 1064.9,498.931 1050.1,504.317L1066.02,548.035C1075.71,544.505 1085.95,542.699 1096.28,542.699L1096.28,496.176Z" style="fill:rgb(229,47,47);"/>
                            </g>
                            <g transform="matrix(-0.939693,-3.42792,-0.34202,9.41814,1421.01,-432.604)">
                                <path d="M1096.28,496.176C1080.53,496.176 1064.9,498.931 1050.1,504.317L1066.02,548.035C1075.71,544.505 1085.95,542.699 1096.28,542.699L1096.28,496.176Z" style="fill:rgb(229,47,47);"/>
                            </g>
                        </g>
                    </g>
                    <g>
                        <g transform="matrix(-1.50139,-1.28786e-14,1.55431e-15,-15.0478,1850.37,11845.3)">
                            <g>
                                <circle cx="1103" cy="597.584" r="4.005" style="fill:white;"/>
                            </g>
                        </g>
                        <g transform="matrix(-1.41085,5.14665,-0.513506,-14.1403,1982.36,3560.79)">
                            <g>
                                <circle cx="1103" cy="597.584" r="4.005" style="fill:white;"/>
                            </g>
                        </g>
                        <g transform="matrix(-1.15013,9.67254,-0.965076,-11.5273,2105.6,-1309.02)">
                            <g>
                                <circle cx="1103" cy="597.584" r="4.005" style="fill:white;"/>
                            </g>
                        </g>
                        <g transform="matrix(-0.750696,13.0318,-1.30024,-7.5239,1675.39,-8505.61)">
                            <g>
                                <circle cx="1103" cy="597.584" r="4.005" style="fill:white;"/>
                            </g>
                        </g>
                        <g transform="matrix(-0.260714,14.8192,-1.47858,-2.61302,1457.49,-13030.1)">
                            <g>
                                <circle cx="1103" cy="597.584" r="4.005" style="fill:white;"/>
                            </g>
                        </g>
                        <g transform="matrix(0.260714,14.8192,-1.47858,2.61302,666.382,-15771.4)">
                            <g>
                                <circle cx="1103" cy="597.584" r="4.005" style="fill:white;"/>
                            </g>
                        </g>
                        <g transform="matrix(0.750696,13.0318,-1.30024,7.5239,209.282,-17833.6)">
                            <g>
                                <circle cx="1103" cy="597.584" r="4.005" style="fill:white;"/>
                            </g>
                        </g>
                        <g transform="matrix(1.15013,9.67254,-0.965076,11.5273,-572.554,-14837)">
                            <g>
                                <circle cx="1103" cy="597.584" r="4.005" style="fill:white;"/>
                            </g>
                        </g>
                        <g transform="matrix(1.41085,5.14665,-0.513506,14.1403,-1054.97,-13471.8)">
                            <g>
                                <circle cx="1103" cy="597.584" r="4.005" style="fill:white;"/>
                            </g>
                        </g>
                    </g>
                </g>
            </g>
        </g>
    </g>
</svg>
