<?xml version="1.0" encoding="UTF-8" standalone="no"?>
<!DOCTYPE svg PUBLIC "-//W3C//DTD SVG 1.1//EN" "http://www.w3.org/Graphics/SVG/1.1/DTD/svg11.dtd">
<svg width="100%" height="100%" viewBox="0 0 350 350" version="1.1" xmlns="http://www.w3.org/2000/svg" xmlns:xlink="http://www.w3.org/1999/xlink" xml:space="preserve" xmlns:serif="http://www.serif.com/" style="fill-rule:evenodd;clip-rule:evenodd;stroke-linejoin:round;stroke-miterlimit:2;">
    <g transform="matrix(1,0,0,1,-533.731,-700)">
        <g id="_7" serif:id="7" transform="matrix(0.281428,0,0,1,105.557,700)">
            <rect x="1521.43" y="0" width="1243.66" height="350" style="fill:none;"/>
            <clipPath id="_clip1">
                <rect x="1521.43" y="0" width="1243.66" height="350"/>
            </clipPath>
            <g clip-path="url(#_clip1)">
                <g transform="matrix(3.55331,0,0,1,-176.161,-0.0242508)">
                    <rect x="477.775" y="0" width="350" height="350" style="fill:rgb(163,220,243);"/>
                    <path d="M827.775,0L477.775,0L477.775,350L827.775,350L827.775,0ZM825.275,2.5L825.275,347.5C825.275,347.5 480.275,347.5 480.275,347.5C480.275,317.764 480.275,32.236 480.275,2.5C480.275,2.5 825.275,2.5 825.275,2.5Z" style="fill:white;"/>
                </g>
                <g transform="matrix(3.56909,0,0,1.00444,-3192.1,-856.85)">
                    <circle cx="1494.88" cy="1027.29" r="134.403" style="fill:white;"/>
                </g>
                <g transform="matrix(1,0,0,1,28.2033,1.7053e-13)">
                    <g transform="matrix(3.53492,0,0,0.994824,-3162.04,-452.909)">
                        <path d="M1492.85,542.215C1541.95,542.215 1581.81,582.077 1581.81,631.176C1581.81,680.274 1541.95,720.136 1492.85,720.136C1443.75,720.136 1403.89,680.274 1403.89,631.176C1403.89,582.077 1443.75,542.215 1492.85,542.215ZM1492.85,563.478C1530.22,563.478 1560.55,593.812 1560.55,631.176C1560.55,668.539 1530.22,698.874 1492.85,698.874C1455.49,698.874 1425.15,668.539 1425.15,631.176C1425.15,593.812 1455.49,563.478 1492.85,563.478Z"/>
                    </g>
                    <g transform="matrix(3.55331,0,0,0.0997748,1493.23,-5.68434e-14)">
                        <g transform="matrix(1,0,0,1,0.0242547,-9.66338e-13)">
                            <g>
                                <g transform="matrix(-1,0,0,10.0226,1271.25,-4572.05)">
                                    <path d="M1096.28,496.176C1080.53,496.176 1064.9,498.931 1050.1,504.317L1066.02,548.035C1075.71,544.505 1085.95,542.699 1096.28,542.699L1096.28,496.176Z"/>
                                </g>
                                <g transform="matrix(-0.766044,6.44238,0.642788,7.67774,609.059,-10154.7)">
                                    <path d="M1096.28,496.176C1080.53,496.176 1064.9,498.931 1050.1,504.317L1066.02,548.035C1075.71,544.505 1085.95,542.699 1096.28,542.699L1096.28,496.176Z"/>
                                </g>
                                <g transform="matrix(-0.173648,9.87031,0.984808,1.7404,-256.245,-10165.1)">
                                    <path d="M1096.28,496.176C1080.53,496.176 1064.9,498.931 1050.1,504.317L1066.02,548.035C1075.71,544.505 1085.95,542.699 1096.28,542.699L1096.28,496.176Z"/>
                                </g>
                                <g transform="matrix(0.5,8.6798,0.866025,-5.01129,-919.776,-4598.5)">
                                    <path d="M1096.28,496.176C1080.53,496.176 1064.9,498.931 1050.1,504.317L1066.02,548.035C1075.71,544.505 1085.95,542.699 1096.28,542.699L1096.28,496.176Z"/>
                                </g>
                                <g transform="matrix(0.939693,3.42792,0.34202,-9.41814,-1071.06,3940.5)">
                                    <path d="M1096.28,496.176C1080.53,496.176 1064.9,498.931 1050.1,504.317L1066.02,548.035C1075.71,544.505 1085.95,542.699 1096.28,542.699L1096.28,496.176Z"/>
                                </g>
                                <g transform="matrix(0.939693,-3.42792,-0.34202,-9.41814,-639.311,11456.4)">
                                    <path d="M1096.28,496.176C1080.53,496.176 1064.9,498.931 1050.1,504.317L1066.02,548.035C1075.71,544.505 1085.95,542.699 1096.28,542.699L1096.28,496.176Z"/>
                                </g>
                                <g transform="matrix(0.5,-8.6798,-0.866025,-5.01129,173.452,14432.4)">
                                    <path d="M1096.28,496.176C1080.53,496.176 1064.9,498.931 1050.1,504.317L1066.02,548.035C1075.71,544.505 1085.95,542.699 1096.28,542.699L1096.28,496.176Z"/>
                                </g>
                                <g transform="matrix(-0.173648,-9.87031,-0.984808,1.7404,986.929,11476)">
                                    <path d="M1096.28,496.176C1080.53,496.176 1064.9,498.931 1050.1,504.317L1066.02,548.035C1075.71,544.505 1085.95,542.699 1096.28,542.699L1096.28,496.176Z"/>
                                </g>
                                <g transform="matrix(-0.766044,-6.44238,-0.642788,7.67774,1420.48,3970.58)">
                                    <path d="M1096.28,496.176C1080.53,496.176 1064.9,498.931 1050.1,504.317L1066.02,548.035C1075.71,544.505 1085.95,542.699 1096.28,542.699L1096.28,496.176Z"/>
                                </g>
                            </g>
                            <g>
                                <g transform="matrix(-0.939693,3.42792,0.34202,9.41814,989.263,-7948.49)">
                                    <path d="M1096.28,496.176C1080.53,496.176 1064.9,498.931 1050.1,504.317L1066.02,548.035C1075.71,544.505 1085.95,542.699 1096.28,542.699L1096.28,496.176Z" style="fill:rgb(229,47,47);"/>
                                </g>
                                <g transform="matrix(-0.5,8.6798,0.866025,5.01129,176.499,-10924.5)">
                                    <path d="M1096.28,496.176C1080.53,496.176 1064.9,498.931 1050.1,504.317L1066.02,548.035C1075.71,544.505 1085.95,542.699 1096.28,542.699L1096.28,496.176Z" style="fill:rgb(229,47,47);"/>
                                </g>
                                <g transform="matrix(0.173648,9.87031,0.984808,-1.7404,-636.977,-7968.12)">
                                    <path d="M1096.28,496.176C1080.53,496.176 1064.9,498.931 1050.1,504.317L1066.02,548.035C1075.71,544.505 1085.95,542.699 1096.28,542.699L1096.28,496.176Z" style="fill:rgb(229,47,47);"/>
                                </g>
                                <g transform="matrix(0.766044,6.44238,0.642788,-7.67774,-1070.53,-462.677)">
                                    <path d="M1096.28,496.176C1080.53,496.176 1064.9,498.931 1050.1,504.317L1066.02,548.035C1075.71,544.505 1085.95,542.699 1096.28,542.699L1096.28,496.176Z" style="fill:rgb(229,47,47);"/>
                                </g>
                                <g transform="matrix(1,3.55271e-15,3.88578e-16,-10.0226,-921.299,8079.95)">
                                    <path d="M1096.28,496.176C1080.53,496.176 1064.9,498.931 1050.1,504.317L1066.02,548.035C1075.71,544.505 1085.95,542.699 1096.28,542.699L1096.28,496.176Z" style="fill:rgb(229,47,47);"/>
                                </g>
                                <g transform="matrix(0.766044,-6.44238,-0.642788,-7.67774,-259.108,13662.6)">
                                    <path d="M1096.28,496.176C1080.53,496.176 1064.9,498.931 1050.1,504.317L1066.02,548.035C1075.71,544.505 1085.95,542.699 1096.28,542.699L1096.28,496.176Z" style="fill:rgb(229,47,47);"/>
                                </g>
                                <g transform="matrix(0.173648,-9.87031,-0.984808,-1.7404,606.196,13673)">
                                    <path d="M1096.28,496.176C1080.53,496.176 1064.9,498.931 1050.1,504.317L1066.02,548.035C1075.71,544.505 1085.95,542.699 1096.28,542.699L1096.28,496.176Z" style="fill:rgb(229,47,47);"/>
                                </g>
                                <g transform="matrix(-0.5,-8.6798,-0.866025,5.01129,1269.73,8106.4)">
                                    <path d="M1096.28,496.176C1080.53,496.176 1064.9,498.931 1050.1,504.317L1066.02,548.035C1075.71,544.505 1085.95,542.699 1096.28,542.699L1096.28,496.176Z" style="fill:rgb(229,47,47);"/>
                                </g>
                                <g transform="matrix(-0.939693,-3.42792,-0.34202,9.41814,1421.01,-432.604)">
                                    <path d="M1096.28,496.176C1080.53,496.176 1064.9,498.931 1050.1,504.317L1066.02,548.035C1075.71,544.505 1085.95,542.699 1096.28,542.699L1096.28,496.176Z" style="fill:rgb(229,47,47);"/>
                                </g>
                            </g>
                        </g>
                        <g>
                            <g transform="matrix(-1.50139,-1.28786e-14,1.55431e-15,-15.0478,1850.37,11845.3)">
                                <g>
                                    <circle cx="1103" cy="597.584" r="4.005" style="fill:white;"/>
                                </g>
                            </g>
                            <g transform="matrix(-1.41085,5.14665,-0.513506,-14.1403,1982.36,3560.79)">
                                <g>
                                    <circle cx="1103" cy="597.584" r="4.005" style="fill:white;"/>
                                </g>
                            </g>
                            <g transform="matrix(-1.15013,9.67254,-0.965076,-11.5273,2105.6,-1309.02)">
                                <g>
                                    <circle cx="1103" cy="597.584" r="4.005" style="fill:white;"/>
                                </g>
                            </g>
                            <g transform="matrix(-0.750696,13.0318,-1.30024,-7.5239,1675.39,-8505.61)">
                                <g>
                                    <circle cx="1103" cy="597.584" r="4.005" style="fill:white;"/>
                                </g>
                            </g>
                            <g transform="matrix(-0.260714,14.8192,-1.47858,-2.61302,1457.49,-13030.1)">
                                <g>
                                    <circle cx="1103" cy="597.584" r="4.005" style="fill:white;"/>
                                </g>
                            </g>
                            <g transform="matrix(0.260714,14.8192,-1.47858,2.61302,666.382,-15771.4)">
                                <g>
                                    <circle cx="1103" cy="597.584" r="4.005" style="fill:white;"/>
                                </g>
                            </g>
                            <g transform="matrix(0.750696,13.0318,-1.30024,7.5239,209.282,-17833.6)">
                                <g>
                                    <circle cx="1103" cy="597.584" r="4.005" style="fill:white;"/>
                                </g>
                            </g>
                            <g transform="matrix(1.15013,9.67254,-0.965076,11.5273,-572.554,-14837)">
                                <g>
                                    <circle cx="1103" cy="597.584" r="4.005" style="fill:white;"/>
                                </g>
                            </g>
                            <g transform="matrix(1.41085,5.14665,-0.513506,14.1403,-1054.97,-13471.8)">
                                <g>
                                    <circle cx="1103" cy="597.584" r="4.005" style="fill:white;"/>
                                </g>
                            </g>
                        </g>
                    </g>
                    <g transform="matrix(3.79226,0,0,1.06725,-3546.22,-498.622)">
                        <path d="M1505.34,699.791C1501.29,700.525 1497.11,700.908 1492.85,700.908C1490.56,700.908 1488.29,700.797 1486.05,700.579L1485.39,707.315C1487.85,707.553 1490.34,707.675 1492.85,707.675C1497.52,707.675 1502.1,707.255 1506.54,706.45L1505.34,699.791ZM1479.66,699.66C1473.22,698.425 1467.09,696.301 1461.41,693.422L1458.35,699.458C1464.59,702.619 1471.31,704.95 1478.39,706.306L1479.66,699.66ZM1529.3,690.62C1523.86,693.968 1517.92,696.59 1511.62,698.348L1513.44,704.866C1520.36,702.936 1526.87,700.059 1532.85,696.384L1529.3,690.62ZM1455.79,690.242C1450.31,686.792 1445.34,682.601 1441.02,677.808L1436,682.336C1440.73,687.591 1446.18,692.187 1452.19,695.97L1455.79,690.242ZM1548.34,673.39C1544.42,678.53 1539.81,683.11 1534.64,686.99L1538.7,692.403C1544.37,688.15 1549.43,683.128 1553.72,677.492L1548.34,673.39ZM1436.93,672.819C1433.1,667.68 1429.95,661.996 1427.64,655.905L1421.31,658.308C1423.85,664.992 1427.3,671.228 1431.51,676.866L1436.93,672.819ZM1559.88,650.464C1558.07,656.745 1555.4,662.663 1552.01,668.083L1557.75,671.673C1561.47,665.724 1564.4,659.228 1566.38,652.335L1559.88,650.464ZM1425.63,649.776C1423.99,643.854 1423.12,637.616 1423.12,631.176C1423.12,630.997 1423.12,630.818 1423.12,630.639L1416.35,630.588C1416.35,630.784 1416.35,630.98 1416.35,631.176C1416.35,638.241 1417.31,645.083 1419.11,651.58L1425.63,649.776ZM1562.31,624.905C1562.49,626.971 1562.58,629.063 1562.58,631.176C1562.58,635.623 1562.17,639.973 1561.37,644.19L1568.02,645.447C1568.89,640.823 1569.35,636.052 1569.35,631.176C1569.35,628.86 1569.25,626.568 1569.05,624.304L1562.31,624.905ZM1423.46,624.194C1424.12,617.636 1425.68,611.344 1428.03,605.447L1421.74,602.946C1419.16,609.419 1417.45,616.325 1416.73,623.523L1423.46,624.194ZM1555.34,600.21C1558.17,605.913 1560.25,612.058 1561.43,618.513L1568.09,617.29C1566.79,610.204 1564.51,603.458 1561.4,597.198L1555.34,600.21ZM1430.69,599.571C1433.64,593.786 1437.37,588.466 1441.75,583.752L1436.79,579.147C1431.99,584.318 1427.89,590.152 1424.66,596.497L1430.69,599.571ZM1539.88,579.709C1544.64,584.06 1548.79,589.061 1552.2,594.572L1557.96,591.012C1554.22,584.97 1549.66,579.486 1544.45,574.715L1539.88,579.709ZM1446.35,579.229C1451.14,574.938 1456.53,571.299 1462.37,568.453L1459.4,562.37C1453,565.492 1447.09,569.483 1441.84,574.189L1446.35,579.229ZM1518.08,566.155C1524.15,568.515 1529.81,571.702 1534.92,575.577L1539.01,570.185C1533.4,565.933 1527.19,562.437 1520.53,559.847L1518.08,566.155ZM1468.29,565.899C1474.22,563.663 1480.54,562.213 1487.12,561.677L1486.57,554.932C1479.35,555.52 1472.41,557.112 1465.9,559.567L1468.29,565.899ZM1492.85,561.444C1499.48,561.444 1505.89,562.37 1511.97,564.1L1513.82,557.592C1507.16,555.694 1500.12,554.677 1492.85,554.677L1492.85,561.444Z" style="fill:white;"/>
                    </g>
                </g>
            </g>
        </g>
    </g>
</svg>
